
<svg version="1.0" xmlns="http://www.w3.org/2000/svg"
 width="50.000000pt" height="50.000000pt" viewBox="0 0 50.000000 50.000000"
 preserveAspectRatio="xMidYMid meet">

<g id="logo" transform="translate(0.000000,50.000000) scale(0.100000,-0.100000)"
fill="#0f5832" stroke="currentColor">
<path d="M176 490 c-35 -11 -66 -38 -66 -58 0 -8 -13 -29 -29 -47 -47 -53 -72
-136 -78 -252 l-6 -103 75 0 c43 0 98 -7 127 -17 47 -15 55 -15 102 0 29 10
84 17 126 17 l76 0 -5 102 c-6 114 -27 184 -75 246 -15 20 -30 45 -33 56 -10
36 -53 58 -121 62 -35 2 -77 -1 -93 -6z m154 -28 c34 -17 35 -18 32 -72 -2
-30 -8 -59 -13 -65 -12 -12 -185 -13 -198 0 -5 6 -11 35 -13 65 -3 54 -2 55
32 72 19 10 55 18 80 18 25 0 61 -8 80 -18z m-199 -147 c5 -5 33 -15 62 -21
l52 -11 -45 -21 c-25 -12 -62 -22 -82 -22 -32 0 -39 -4 -44 -27 -5 -19 -2 -31
12 -42 10 -9 31 -40 46 -68 l27 -53 -71 0 -71 0 6 88 c6 100 28 172 66 222
l26 35 3 -35 c2 -19 8 -39 13 -45z m304 6 c28 -58 45 -135 45 -211 l0 -60 -70
0 -69 0 27 53 c15 28 35 58 44 65 22 16 23 47 2 64 -59 48 -66 58 -50 74 9 8
16 31 16 51 0 31 2 34 16 22 8 -7 26 -33 39 -58z m-93 -51 c9 -17 29 -35 43
-42 28 -13 32 -30 10 -48 -8 -7 -30 -40 -47 -72 -61 -115 -135 -115 -196 0
-17 32 -39 65 -47 72 -24 20 -18 40 13 40 44 0 99 19 129 44 53 44 73 45 95 6z"/>
<path d="M240 420 c0 -13 -7 -20 -20 -20 -11 0 -20 -4 -20 -10 0 -5 9 -10 20
-10 13 0 20 -7 20 -20 0 -11 5 -20 10 -20 6 0 10 9 10 20 0 13 7 20 20 20 11
0 20 5 20 10 0 6 -9 10 -20 10 -13 0 -20 7 -20 20 0 11 -4 20 -10 20 -5 0 -10
-9 -10 -20z"/>
</g>
<g id="qoute">
    <path d="M9.54167 12.8333C9.07708 12.8333 8.63125 12.9042 8.1875 12.9688C8.33125 12.4854 8.47917
11.9938 8.71667 11.5521C8.95417 10.9104 9.325 10.3542 9.69375 9.79375C10.0021 9.1875 10.5458 8.77709
 10.9458 8.25834C11.3646 7.75417 11.9354 7.41875 12.3875 7C12.8312 6.5625 13.4125 6.34375 13.875 6.03542C14.3583
  5.75834 14.7792 5.45209 15.2292 5.30625L16.3521 4.84375L17.3396 4.43334L16.3292 0.395836L15.0854
   0.695835C14.6875 0.795835 14.2021 0.912502 13.65 1.05209C13.0854 1.15625 12.4833 1.44167 11.8125
    1.70209C11.15 1.99792 10.3833 2.19792 9.67083 2.67292C8.95417 3.12709 8.12708 3.50625 7.39791
    4.11459C6.69166 4.74167 5.83958 5.28542 5.21041 6.08334C4.52291 6.82917 3.84375 7.6125 3.31666 8.50417C2.70625
     9.35417 2.29166 10.2875 1.85416 11.2104C1.45833 12.1333 1.13958 13.0771 0.879164 13.9938C0.385414 15.8313
      0.164581 17.5771 0.079164 19.0708C0.0083307 20.5667 0.0499974 21.8104 0.137497 22.7104C0.168747 23.1354
      0.227081 23.5479 0.268748 23.8333L0.320831 24.1833L0.374997 24.1708C0.745541 25.9017 1.59855 27.4924
       2.83534 28.7587C4.07213 30.0251 5.64217 30.9154 7.36383 31.3267C9.08549 31.738 10.8884 31.6535
        12.5641 31.083C14.2397 30.5124 15.7196 29.4792 16.8325 28.1027C17.9454 26.7262 18.6459 25.0628
         18.853 23.3048C19.06 21.5468 18.7651 19.7662 18.0024 18.1688C17.2396 16.5714 16.0403 15.2226 14.543 14.2784C13.0458 13.3342 11.3118 12.8332 9.54167 12.8333ZM32.4583 12.8333C31.9937 12.8333 31.5479 12.9042 31.1042 12.9688C31.2479 12.4854 31.3958 11.9938 31.6333 11.5521C31.8708 10.9104 32.2417 10.3542 32.6104 9.79375C32.9188 9.1875 33.4625 8.77709 33.8625 8.25834C34.2812 7.75417 34.8521 7.41875 35.3042 7C35.7479 6.5625 36.3292 6.34375 36.7917 6.03542C37.275 5.75834 37.6958 5.45209 38.1458 5.30625L39.2687 4.84375L40.2562 4.43334L39.2458 0.395836L38.0021 0.695835C37.6042 0.795835 37.1187 0.912502 36.5667 1.05209C36.0021 1.15625 35.4 1.44167 34.7292 1.70209C34.0688 2 33.3 2.19792 32.5875 2.675C31.8708 3.12917 31.0438 3.50834 30.3146 4.11667C29.6083 4.74375 28.7562 5.2875 28.1271 6.08334C27.4396 6.82917 26.7604 7.6125 26.2333 8.50417C25.6229 9.35417 25.2083 10.2875 24.7708 11.2104C24.375 12.1333 24.0562 13.0771 23.7958 13.9938C23.3021 15.8313 23.0812 17.5771 22.9958 19.0708C22.925 20.5667 22.9667 21.8104 23.0542 22.7104C23.0854 23.1354 23.1437 23.5479 23.1854 23.8333L23.2375 24.1833L23.2917 24.1708C23.6622 25.9017 24.5152 27.4924 25.752 28.7587C26.9888 30.0251 28.5588 30.9154 30.2805 31.3267C32.0022 31.738 33.8051 31.6535 35.4807 31.083C37.1564 30.5124 38.6363 29.4792 39.7492 28.1027C40.8621 26.7262 41.5626 25.0628 41.7696 23.3048C41.9766 21.5468 41.6817 19.7662 40.919 18.1688C40.1563 16.5714 38.957 15.2226 37.4597 14.2784C35.9624 13.3342 34.2284 12.8332 32.4583 12.8333Z" fill="currentColor"/>
</g>
    <g id="insta">
        <path d="M13.6516 0.0999756H3.34844C1.55687 0.0999756 0.0999985 1.55628 0.0999985 3.34715V6.77799V13.6528C0.0999985 15.4437 1.55687 16.9 3.34844 16.9H13.6516C15.4431 16.9 16.9 15.4437 16.9 13.6528V6.77143V3.34058C16.8934 1.55628 15.4366 0.0999756 13.6516 0.0999756ZM14.5834 2.03516H14.9575V2.40251V4.88217L12.1159 4.88873L12.1094 2.04172L14.5834 2.03516ZM6.09812 6.77143C6.63625 6.03016 7.50906 5.53816 8.49343 5.53816C9.47781 5.53816 10.3506 6.0236 10.8887 6.77143C11.2431 7.25687 11.4466 7.85382 11.4466 8.4967C11.4466 10.1236 10.1209 11.4552 8.48687 11.4552C6.85281 11.4552 5.54031 10.1236 5.54031 8.4967C5.54031 7.85382 5.75031 7.25687 6.09812 6.77143ZM15.2594 13.6462C15.2594 14.5318 14.5375 15.2534 13.6516 15.2534H3.34844C2.4625 15.2534 1.74062 14.5318 1.74062 13.6462V6.77143H4.2475C4.03094 7.30279 3.90625 7.88662 3.90625 8.4967C3.90625 11.0288 5.96687 13.0887 8.5 13.0887C11.0331 13.0887 13.0937 11.0288 13.0937 8.4967C13.0937 7.88662 12.9691 7.30279 12.7525 6.77143H15.2594V13.6462Z" fill="currentColor"/>
    </g>
    <g id="telegram">
        <path d="M16.9057 1.76449L14.3705 13.7208C14.1791 14.5644 13.6804 14.7745 12.9717 14.3772L9.10852 11.5305L7.24472 13.3235C7.0383 13.5299 6.86608 13.7022 6.46824 13.7022L6.74607 9.76814L13.9054 3.29885C14.2169 3.02162 13.8376 2.86741 13.4218 3.14524L4.57084 8.71863L0.760432 7.5257C-0.0682556 7.26707 -0.0832572 6.69701 0.933251 6.29917L15.837 0.557163C16.5271 0.298535 17.1308 0.710179 16.9057 1.76449Z" fill="currentColor"/>
    </g>
    <g id="goTop">
        <path d="M6.80722 4.2806V15H9.19278V4.2806L14.3134 9.08118L16 7.5L8 0L0 7.5L1.6866 9.08118L6.80722 4.2806Z" fill="white"/>

    </g>
</svg>

